Coordinates
version=1
nRows=6
nColumns=63
inDegrees=yes

Units are S.I. units (second, meters, Newtons, ...)
If the header above contains a line with 'inDegrees', this indicates whether rotational values are in degrees (yes) or radians (no).

endheader
time	pelvis_tilt	pelvis_list	pelvis_rotation	pelvis_tx	pelvis_ty	pelvis_tz	hip_flexion_r	hip_adduction_r	hip_rotation_r	knee_angle_r	knee_angle_r_beta	ankle_angle_r	subtalar_angle_r	mtp_angle_r	hip_flexion_l	hip_adduction_l	hip_rotation_l	knee_angle_l	knee_angle_l_beta	ankle_angle_l	subtalar_angle_l	mtp_angle_l	L5_S1_Flex_Ext	L5_S1_Lat_Bending	L5_S1_axial_rotation	L4_L5_Flex_Ext	L4_L5_Lat_Bending	L4_L5_axial_rotation	L3_L4_Flex_Ext	L3_L4_Lat_Bending	L3_L4_axial_rotation	L2_L3_Flex_Ext	L2_L3_Lat_Bending	L2_L3_axial_rotation	L1_L2_Flex_Ext	L1_L2_Lat_Bending	L1_L2_axial_rotation	L1_T12_Flex_Ext	L1_T12_Lat_Bending	L1_T12_axial_rotation	Abs_r3	Abs_r2	Abs_r1	Abs_t1	Abs_t2	neck_flexion	neck_bending	neck_rotation	arm_flex_r	arm_add_r	arm_rot_r	elbow_flex_r	pro_sup_r	wrist_flex_r	wrist_dev_r	arm_flex_l	arm_add_l	arm_rot_l	elbow_flex_l	pro_sup_l	wrist_flex_l	wrist_dev_l
8.915254	2.335500	2.584195	90.158310	0.194344	0.845228	0.619687	-9.645814	1.895659	-6.763001	1.004867	0.017538	7.112452	8.579471	0.000000	-10.082697	-2.633348	13.086102	1.848060	0.032255	-14.264740	5.944290	0.000000	-0.109489	0.377085	0.004262	-0.203333	0.501523	0.004528	-0.179880	0.916844	0.004528	-0.125135	0.916844	0.003729	-0.101672	0.768951	0.003463	-0.062562	0.584104	0.003197	-0.782071	4.265658	0.023705	0.000000	0.000000	6.713934	-12.840595	8.802454	50.907139	-5.388640	7.234374	91.819218	75.822902	-7.736853	4.580293	42.995561	-7.561461	-0.460611	98.800705	71.075924	-9.493585	15.152921
8.932203	2.092836	2.548866	90.002007	0.195180	0.844865	0.618485	-9.679286	1.680077	-7.352766	0.956592	0.016696	7.830139	9.293085	0.000000	-10.064784	-2.406660	12.557634	1.830706	0.031952	-12.980141	6.929650	0.000000	-0.110865	0.357008	-0.020758	-0.205888	0.474821	-0.022055	-0.182140	0.868029	-0.022055	-0.126708	0.868029	-0.018163	-0.102949	0.728011	-0.016866	-0.063348	0.553005	-0.015568	-0.791898	4.038546	-0.115449	0.000000	0.000000	6.382881	-12.680566	9.325434	51.334359	-5.075689	7.314491	90.470741	75.827557	-7.618675	3.314050	42.721120	-8.140577	-0.731023	99.559445	70.079972	-9.853811	15.321244
8.949153	1.921298	2.497202	89.875820	0.195869	0.844500	0.617452	-9.677176	1.532525	-7.825857	0.900245	0.015712	8.621453	9.823567	0.000000	-10.030224	-2.253139	12.045415	1.785421	0.031161	-11.514115	7.988816	0.000000	-0.112334	0.345549	-0.052410	-0.208616	0.459580	-0.055686	-0.184554	0.840167	-0.055686	-0.128387	0.840167	-0.045859	-0.104313	0.704643	-0.042583	-0.064188	0.535255	-0.039308	-0.802391	3.908917	-0.291489	0.000000	0.000000	6.033687	-12.484335	9.803409	51.910706	-4.810491	7.424726	88.843666	76.033148	-7.787905	2.153657	42.477097	-8.755039	-0.933300	100.172689	69.066839	-10.078196	15.156125
8.966102	1.809123	2.420305	89.746766	0.196429	0.844148	0.616580	-9.626253	1.434139	-8.077228	0.845308	0.014753	9.475554	10.147801	0.000000	-9.977611	-2.152251	11.599030	1.711471	0.029871	-9.920214	8.932377	0.000000	-0.113457	0.339957	-0.084410	-0.210702	0.452143	-0.089686	-0.186399	0.826572	-0.089686	-0.129670	0.826572	-0.073859	-0.105356	0.693241	-0.068583	-0.064830	0.526594	-0.063307	-0.810414	3.845664	-0.469463	0.000000	0.000000	5.719635	-12.193056	10.203097	52.554041	-4.598353	7.549624	87.092978	76.100113	-8.101374	1.306919	42.229962	-9.396018	-1.074401	100.692271	68.054834	-10.108847	14.732379
8.983051	1.765822	2.324616	89.631657	0.196834	0.843831	0.615870	-9.536942	1.397453	-8.112111	0.790027	0.013789	10.337027	10.275241	0.000000	-9.911765	-2.116238	11.305967	1.615085	0.028189	-8.249465	9.648057	0.000000	-0.114845	0.340673	-0.122928	-0.213278	0.453095	-0.130611	-0.188678	0.828313	-0.130611	-0.131256	0.828313	-0.107562	-0.106645	0.694701	-0.099879	-0.065622	0.527703	-0.092196	-0.820324	3.853762	-0.683688	0.000000	0.000000	5.452405	-11.776413	10.561640	53.195644	-4.421003	7.714301	85.285692	76.087137	-8.516410	0.681786	41.937053	-10.059089	-1.190325	101.189250	67.025130	-10.004256	14.238476
9.000000	1.775874	2.213140	89.522245	0.197112	0.843563	0.615290	-9.416638	1.405797	-7.943556	0.738313	0.012886	11.150927	10.258962	0.000000	-9.839426	-2.127792	11.160945	1.502032	0.026215	-6.632905	10.099825	0.000000	-0.116200	0.345454	-0.164936	-0.215794	0.459454	-0.175244	-0.190904	0.839937	-0.175244	-0.132804	0.839937	-0.144319	-0.107903	0.704450	-0.134010	-0.066396	0.535108	-0.123702	-0.830002	3.907845	-0.917323	0.000000	0.000000	5.237725	-11.185584	10.940342	53.734714	-4.276988	7.906227	83.569236	76.115105	-9.005958	0.284863	41.554102	-10.719691	-1.305698	101.702708	66.004229	-9.879953	13.758402
